<svg xmlns="http://www.w3.org/2000/svg" id="Camada_2" data-name="Camada 2" viewBox="0 0 515.09 123.93"><defs><style>      .cls-1 {        fill: #fdd449;      }      .cls-1, .cls-2 {        stroke-width: 0px;      }      .cls-2 {        fill: #e5e5e5;      }    </style></defs><g id="Layer_1" data-name="Layer 1"><g><g><path class="cls-2" d="M195.8,120.93h-6l-1.29,2.87h-1.18l4.92-10.76h1.12l4.92,10.76h-1.2l-1.29-2.87ZM195.39,120l-2.58-5.78-2.58,5.78h5.17Z"></path><path class="cls-2" d="M209.33,118.42h1.09v4.1c-1.02.91-2.46,1.37-3.95,1.37-3.27,0-5.67-2.32-5.67-5.47s2.39-5.47,5.69-5.47c1.63,0,3.04.52,4,1.55l-.71.72c-.91-.89-1.98-1.26-3.24-1.26-2.66,0-4.61,1.89-4.61,4.46s1.95,4.46,4.6,4.46c1.03,0,1.99-.23,2.81-.83v-3.63Z"></path><path class="cls-2" d="M223.06,122.82v.98h-7.61v-10.76h7.38v.98h-6.24v3.83h5.56v.97h-5.56v4h6.47ZM217.64,112.16h-1.02l1.99-1.91h1.11l1.98,1.91h-1.01l-1.52-1.27-1.52,1.27Z"></path><path class="cls-2" d="M236.56,113.04v10.76h-.94l-6.91-8.73v8.73h-1.14v-10.76h.94l6.93,8.73v-8.73h1.12Z"></path><path class="cls-2" d="M240.93,118.42c0-3.15,2.39-5.47,5.64-5.47,1.57,0,2.98.52,3.93,1.57l-.72.72c-.88-.89-1.95-1.28-3.18-1.28-2.6,0-4.55,1.91-4.55,4.46s1.95,4.46,4.55,4.46c1.23,0,2.31-.38,3.18-1.29l.72.72c-.95,1.05-2.37,1.58-3.95,1.58-3.23,0-5.63-2.32-5.63-5.47Z"></path><path class="cls-2" d="M254.76,113.04h1.14v10.76h-1.14v-10.76Z"></path><path class="cls-2" d="M267.99,120.93h-6l-1.29,2.87h-1.18l4.92-10.76h1.12l4.92,10.76h-1.2l-1.29-2.87ZM267.57,120l-2.58-5.78-2.58,5.78h5.17Z"></path><path class="cls-2" d="M278.27,113.08h4.38c3.44,0,5.77,2.21,5.77,5.38s-2.32,5.38-5.77,5.38h-4.38v-10.76ZM282.59,122.85c2.86,0,4.7-1.81,4.7-4.4s-1.85-4.4-4.7-4.4h-3.18v8.79h3.18Z"></path><path class="cls-2" d="M300.39,122.85v.98h-7.61v-10.76h7.38v.98h-6.24v3.83h5.56v.97h-5.56v4h6.47Z"></path><path class="cls-2" d="M319.75,113.08v10.76h-.94l-6.91-8.73v8.73h-1.14v-10.76h.94l6.93,8.73v-8.73h1.12Z"></path><path class="cls-2" d="M332.69,122.85v.98h-7.61v-10.76h7.38v.98h-6.24v3.83h5.56v.97h-5.56v4h6.47Z"></path><path class="cls-2" d="M344.71,118.46h1.09v4.1c-1.02.91-2.46,1.37-3.95,1.37-3.27,0-5.67-2.32-5.67-5.47s2.39-5.47,5.69-5.47c1.63,0,3.04.52,4,1.55l-.71.72c-.91-.89-1.98-1.26-3.24-1.26-2.66,0-4.61,1.89-4.61,4.46s1.95,4.46,4.6,4.46c1.03,0,1.99-.23,2.81-.83v-3.63Z"></path><path class="cls-2" d="M349.89,118.46c0-3.14,2.39-5.47,5.65-5.47s5.64,2.32,5.64,5.47-2.41,5.47-5.64,5.47-5.65-2.34-5.65-5.47ZM360.05,118.46c0-2.57-1.92-4.46-4.51-4.46s-4.53,1.89-4.53,4.46,1.94,4.46,4.53,4.46,4.51-1.89,4.51-4.46ZM356.65,110.3h1.46l-2.49,1.91h-1.08l2.1-1.91Z"></path><path class="cls-2" d="M364.6,118.46c0-3.15,2.4-5.47,5.64-5.47,1.57,0,2.98.52,3.93,1.57l-.72.72c-.88-.89-1.95-1.28-3.18-1.28-2.6,0-4.55,1.91-4.55,4.46s1.95,4.46,4.55,4.46c1.23,0,2.31-.38,3.18-1.29l.72.72c-.95,1.05-2.37,1.58-3.95,1.58-3.23,0-5.63-2.32-5.63-5.47Z"></path><path class="cls-2" d="M378.43,113.08h1.14v10.76h-1.14v-10.76Z"></path><path class="cls-2" d="M383.96,118.46c0-3.14,2.4-5.47,5.65-5.47s5.64,2.32,5.64,5.47-2.41,5.47-5.64,5.47-5.65-2.34-5.65-5.47ZM394.12,118.46c0-2.57-1.92-4.46-4.51-4.46s-4.53,1.89-4.53,4.46,1.94,4.46,4.53,4.46,4.51-1.89,4.51-4.46Z"></path><path class="cls-2" d="M398.6,122.53l.45-.88c.77.75,2.14,1.31,3.55,1.31,2.01,0,2.89-.85,2.89-1.91,0-2.95-6.62-1.14-6.62-5.12,0-1.58,1.23-2.95,3.97-2.95,1.21,0,2.47.35,3.34.95l-.38.91c-.92-.6-2-.89-2.95-.89-1.97,0-2.84.88-2.84,1.95,0,2.95,6.62,1.17,6.62,5.09,0,1.58-1.26,2.93-4.01,2.93-1.61,0-3.2-.57-4-1.4Z"></path></g><path class="cls-2" d="M135.47,56.72c0-19.69,10.69-39.38,40.17-39.38s40.28,19.8,40.28,39.38-10.58,39.15-40.28,39.15-40.17-19.13-40.17-39.15ZM175.64,79.78c15.64,0,19.57-8.44,19.57-23.06s-3.94-23.18-19.57-23.18-19.46,8.33-19.46,23.18,4.05,23.06,19.46,23.06Z"></path><path class="cls-2" d="M285.85,56.72c0-19.69,10.69-39.38,40.17-39.38s40.28,19.8,40.28,39.38-10.58,39.15-40.28,39.15-40.17-19.13-40.17-39.15ZM326.01,79.78c15.64,0,19.57-8.44,19.57-23.06s-3.94-23.18-19.57-23.18-19.46,8.33-19.46,23.18,4.05,23.06,19.46,23.06Z"></path><path class="cls-1" d="M49.01,0v26.96l4.4,15.05-4.4-4.12h0S22.21,11.1,22.21,11.1l-11.11,11.11,26.8,26.8H0v15.71h37.89l-26.8,26.8,11.11,11.11,26.8-26.8v37.9h15.71v-56.85s0-.02,0-.03V0h-15.71Z"></path><path class="cls-2" d="M266.86,19.25l-11.03,24.53c-.73,1.75-1.44,3.47-2.14,5.2l-5.52,14.65,1.02-11.4c-1.06-2.81-2.18-5.61-3.37-8.45l-10.69-24.53h-22.28l28.13,53.22v21.6h19.91v-21.6l27.9-53.22h-21.94Z"></path><path class="cls-2" d="M489.55,19.25h-30.49l-25.54,74.82h19.8l4.84-14.06h32.18l4.84,14.06h19.91l-25.54-74.82ZM459.85,74.39l5.19-14.62h0s9.21-26.79,9.21-26.79l11.03,32.06h-19l-6.43,9.35Z"></path><polygon class="cls-2" points="102.56 78.43 99.46 89.91 99.49 77.66 99.49 19.25 79.46 19.25 79.46 94.07 133.13 94.07 133.13 78.43 102.56 78.43"></polygon><polygon class="cls-2" points="398.59 78.43 395.49 89.91 395.52 76.61 395.52 19.25 375.49 19.25 375.49 94.07 429.16 94.07 429.16 78.43 398.59 78.43"></polygon></g></g></svg>